/* XPM */
static char *_c75a2d9af92423da97a9dd8bf75fa09[] = {
/* columns rows colors chars-per-pixel */
"100 49 2 1 ",
"  c gray100",
". c None",
/* pixels */
"....................................................................................................",
"....................................................................................................",
".................................................................. .................................",
".................................................................    ...............................",
".................................................................     ..............................",
"................................................................ .      ............................",
"............................................................... ..        ..........................",
".................................................................      .   .........................",
".............................................................. ..  .  ....   .......................",
"..........    .      ........................................  ..  .........   .....................",
".........   . ......                 ........................  ..  ...........  ....................",
"........     .........................                     ..  .. .............   ..................",
".......      ....................................                 ...............   ................",
"......       ......................................................................  ...............",
"......       .......................................................................  ..............",
"......       .........................................................................  ............",
"......   .   ..........................................................................   ..........",
"......  ..   ............................................................................  .........",
"...... ...   ..............................................................................  .......",
"...... ...   ..............................................................................     ....",
"......  ..    ............................................................................      ....",
"...... .      ...........................................................................      .....",
"...... . .    .........................................................................       ......",
"......  ..    .......................................................................        .......",
"...... ...     . ....................................................................       ........",
"...... ...     .  ..................................................................        ........",
"...... ...    ..  .................................................................     .  .........",
"......            ..............................................   ...............    ..  ..........",
"......   .     .   ......................................          .............    ...   ..........",
"......  ..           .................................              ...........    ..     ..........",
"......  ..            .... ...........                         .  . ..........   ..     ............",
"......  ..                  .                ..............         .......    ...    ..............",
"......   .                          .................. ....         .....     ..    ................",
"......  . .              ............................ . .           ....    ...    .................",
".....    .       . .  .............................. .          .  ...     ..    ...................",
".....            ........ ...................                   . ...     ..   .....................",
"......           ..... . ........                    ......    .  .     ..   .......................",
"......                                  ...................    ..      .   .........................",
"......               ......................................    ..    ..  ...........................",
"......     ................................................    .. .     ............................",
"...........................................................   ..      ..............................",
"...........................................................   .      ...............................",
"...........................................................  .     .................................",
"...........................................................       ..................................",
"...........................................................     ....................................",
"...........................................................   ......................................",
"........................................................... ........................................",
"....................................................................................................",
"...................................................................................................."
};
