/* XPM */
static char *_8914d7c95524259846d1ceea9621f5e[] = {
/* columns rows colors chars-per-pixel */
"100 100 2 1 ",
"  c black",
". c None",
/* pixels */
"....................................................................................................",
"....................................................................................................",
"....................................................................................................",
"....................................................................................................",
"....................................................................................................",
"...............................................      ...............................................",
".............................................          .............................................",
"...........................................              ...........................................",
"..........................................                ..........................................",
".........................................                  .........................................",
".........................................                  .........................................",
"........................................                    ........................................",
".......................................                      .......................................",
".......................................                      .......................................",
"......................................                        ......................................",
"......................................                        ......................................",
".....................................                          .....................................",
".....................................                          .....................................",
"....................................                            ....................................",
"....................................                            ....................................",
"....................................                            ....................................",
"....................................                            ....................................",
"...................................                              ...................................",
"...................................                              ...................................",
"...................................                              ...................................",
"...................................                              ...................................",
"...................................                              ...................................",
"...................................                              ...................................",
"...................................                              ...................................",
"...................................                              ...................................",
"....................................................................................................",
".................................                                  .................................",
".................................                                  .................................",
".................................                                  .................................",
".................................                                  .................................",
".................................                                  .................................",
".................................                                  .................................",
".................................                                  .................................",
".................................                                  .................................",
".................................                                  .................................",
".................................                                  .................................",
".................................                                  .................................",
".................................                                  .................................",
".................................                                  .................................",
".................................                                  .................................",
".................................                                  .................................",
".................................                                  .................................",
".................................                                  .................................",
".................................                                  .................................",
".................................                                  .................................",
".................................                                  .................................",
".................................                                  .................................",
".................................                                  .................................",
".................................                                  .................................",
".................................                                  .................................",
".................................                                  .................................",
".................................                                  .................................",
".................................                                  .................................",
".................................                                  .................................",
".................................                                  .................................",
".................................                                  .................................",
".................................                                  .................................",
".................................                                  .................................",
".................................                                  .................................",
".................................                                  .................................",
".................................                                  .................................",
".................................                                  .................................",
".................................                                  .................................",
".................................                                  .................................",
".................................                                  .................................",
".................................                                  .................................",
".................................                                  .................................",
".................................                                  .................................",
".................................                                  .................................",
".................................                                  .................................",
".................................                                  .................................",
".................................                                  .................................",
".................................                                  .................................",
".................................                                  .................................",
".................................                                  .................................",
".................................                                  .................................",
".................................                                  .................................",
".................................                                  .................................",
".................................                                  .................................",
".................................                                  .................................",
"..................................                                ..................................",
"....................................................................................................",
"...................................                              ...................................",
"...................................                              ...................................",
"....................................                            ....................................",
"....................................................................................................",
".................................                                  .................................",
".................................                                  .................................",
".................................                                  .................................",
"..................................                                ..................................",
"....................................................................................................",
"....................................................................................................",
"....................................................................................................",
"....................................................................................................",
"...................................................................................................."
};
