/* XPM */
static char *e4f034be29e04bc0de17d445c1998a75[] = {
/* columns rows colors chars-per-pixel */
"100 100 2 1 ",
"  c black",
". c None",
/* pixels */
"....................................................................................................",
"....................................................................................................",
"....................................................................................................",
"....................................................................................................",
"....................................................................................................",
"....................................................................................................",
"....................................................................................................",
"....................................................................................................",
"....................................................................................................",
"....................................................................................................",
"....................................................................................................",
"....................................................................................................",
"....................................................................................................",
"....................................................................................................",
"....................................................................................................",
"....................................................................................................",
"....................................................................................................",
"....................................................................................................",
"....................................................................................................",
"....................................................................................................",
"....................................................................................................",
"....................................................................................................",
"....................................................................................................",
"....................................................................................................",
"....................................................................................................",
"....................................................................................................",
"....................................................................................................",
"....................................................................................................",
"....................................................................................................",
"....................................................................................................",
"....................................................................................................",
"....................................................................................................",
"....................................................................................................",
"...............................                                                      ......   ......",
"...............................                                                       .....    .....",
"......................        .                                                       .  ..    .....",
"..................            .                                                       .   .    .....",
"................              .                                                       .   .    .....",
"..............                .                                                       .   .    .....",
"............                  .                                                       .   .    .....",
"...........                   .                                                       .   .    .....",
".........                     .                                                       .   .    .....",
"........                      .                                                       .   .    .....",
".......                       .                                                       .   .    .....",
".......                       .                                                       .   .    .....",
"......                        .                                                       .   .    .....",
"......                        .                                                       .   .    .....",
".....                         .                                                       .   .    .....",
".....                         .                                                       .   .    .....",
".....                         .                                                       .   .    .....",
".....                         .                                                       .   .    .....",
".....                         .                                                       .   .    .....",
".....                         .                                                       .   .    .....",
"......                        .                                                       .   .    .....",
"......                        .                                                       .   .    .....",
".......                       .                                                       .   .    .....",
".......                       .                                                       .   .    .....",
"........                      .                                                       .   .    .....",
".........                     .                                                       .   .    .....",
"...........                   .                                                       .   .    .....",
"............                  .                                                       .   .    .....",
"..............                .                                                       .   .    .....",
"................              .                                                       .   .    .....",
"..................            .                                                       .   .    .....",
"......................        .                                                       .  ..    .....",
"...............................                                                       .....    .....",
"...............................                                                      ......   ......",
"....................................................................................................",
"....................................................................................................",
"....................................................................................................",
"....................................................................................................",
"....................................................................................................",
"....................................................................................................",
"....................................................................................................",
"....................................................................................................",
"....................................................................................................",
"....................................................................................................",
"....................................................................................................",
"....................................................................................................",
"....................................................................................................",
"....................................................................................................",
"....................................................................................................",
"....................................................................................................",
"....................................................................................................",
"....................................................................................................",
"....................................................................................................",
"....................................................................................................",
"....................................................................................................",
"....................................................................................................",
"....................................................................................................",
"....................................................................................................",
"....................................................................................................",
"....................................................................................................",
"....................................................................................................",
"....................................................................................................",
"....................................................................................................",
"....................................................................................................",
"....................................................................................................",
"....................................................................................................",
"...................................................................................................."
};
