/* XPM */
static char *_d9e0b8af79346658cbacd91132cbe7c[] = {
/* columns rows colors chars-per-pixel */
"100 100 2 1 ",
"  c #292728",
". c None",
/* pixels */
"....................................................................................................",
"....................................................................................................",
"....................................................................................................",
"....................................................................................................",
"....................................................................................................",
"....................................................................................................",
"....................................................................................................",
"....................................................................................................",
"....................................................................................................",
"....................................................................................................",
"....................................................................................................",
"....................................................................................................",
"....................................................................................................",
"....................................................................................................",
"....................................................................................................",
"....................................................................................................",
"....................................................................................................",
"....................................................................................................",
"....................................................................................................",
"....................................................................................................",
"....................................................................................................",
"....................................................................................................",
"....................................................................................................",
"....................................................................................................",
"....................................................................................................",
"....................................................................................................",
"....................................................................................................",
"....................................................................................................",
"....................................................................................................",
"....................................................................................................",
"....................................................................................................",
"....................................................................................................",
"....................................................................................................",
"...............       .....................................................       ..................",
"............               ............................................               ..............",
"..........                   .......................................                    ............",
"........         .........      ..................................           ........     ..........",
"......        ...............     ..............................         ...............    ........",
".....       ....................    ..........................         ...................   .......",
"....       .......................   .......................         .......................  ......",
"...      ...........................   ....................        ..........................   ....",
"..      .............................   ..................       .............................  ....",
"..     ................................   ..............       ...............................   ...",
".     ..................................   ............       .................................   ..",
".     ....................................  ..........       ...................................   .",
"     ......................................   .......      .....................................   .",
"     .......................................   ....       ......................................   .",
"    .........................................   ..       .......................................    ",
"    ..........................................          ........................................    ",
"    ...........................................       ..........................................    ",
"    ...........................................      ...........................................    ",
"    ..........................................      ............................................    ",
"    .........................................        ...........................................    ",
"    ........................................      ..  ..........................................    ",
".   ......................................       ....  .........................................    ",
".   .....................................       ......   ......................................     ",
"..   ...................................       ........   ....................................     .",
"..   .................................       ...........   ...................................     .",
"...   ...............................       ..............   ................................     ..",
"....   ............................        ................   ..............................      ..",
".....  ..........................        ....................   ...........................      ...",
"......   ......................         ......................    .......................       ....",
".......   ...................         ..........................    ....................       .....",
"........    ..............          ..............................     ...............        ......",
"..........      ......            ..................................       .......          ........",
"............                    .......................................                   ..........",
"...............              .............................................              ............",
"...................     ............................................................................",
"....................................................................................................",
"....................................................................................................",
"....................................................................................................",
"....................................................................................................",
"....................................................................................................",
"....................................................................................................",
"....................................................................................................",
"....................................................................................................",
"....................................................................................................",
"....................................................................................................",
"....................................................................................................",
"....................................................................................................",
"....................................................................................................",
"....................................................................................................",
"....................................................................................................",
"....................................................................................................",
"....................................................................................................",
"....................................................................................................",
"....................................................................................................",
"....................................................................................................",
"....................................................................................................",
"....................................................................................................",
"....................................................................................................",
"....................................................................................................",
"....................................................................................................",
"....................................................................................................",
"....................................................................................................",
"....................................................................................................",
"....................................................................................................",
"....................................................................................................",
"....................................................................................................",
"...................................................................................................."
};
